<svg xmlns="http://www.w3.org/2000/svg" viewBox="0 0 800 500" fill="none" aria-hidden="true">
  <defs>
    <linearGradient id="a" x1="0" y1="0" x2="800" y2="500" gradientUnits="userSpaceOnUse">
      <stop stop-color="#157c88" stop-opacity="0.08"/>
      <stop offset="1" stop-color="#3da8b8" stop-opacity="0.04"/>
    </linearGradient>
    <pattern id="grid" width="48" height="48" patternUnits="userSpaceOnUse">
      <path d="M48 0H0v48" stroke="#94a3b8" stroke-opacity="0.2" stroke-width="0.6"/>
    </pattern>
  </defs>
  <rect width="800" height="500" fill="url(#a)"/>
  <rect width="800" height="500" fill="url(#grid)" opacity="0.45"/>
  <!-- endpoints -->
  <rect x="96" y="200" width="120" height="88" rx="8" stroke="#157c88" stroke-width="2" fill="#fff" fill-opacity="0.85"/>
  <rect x="116" y="222" width="80" height="8" rx="2" fill="#cbd5e1"/>
  <rect x="116" y="238" width="56" height="6" rx="2" fill="#e2e8f0"/>
  <rect x="116" y="252" width="72" height="6" rx="2" fill="#e2e8f0"/>
  <!-- flow -->
  <path d="M216 244h72l24 20 24-20h72" stroke="#157c88" stroke-width="2" stroke-linecap="round" stroke-linejoin="round" fill="none" opacity="0.85"/>
  <circle cx="336" cy="244" r="10" fill="#157c88" fill-opacity="0.2" stroke="#157c88" stroke-width="2"/>
  <!-- telemetry bars -->
  <g opacity="0.9">
    <rect x="420" y="260" width="28" height="80" rx="4" fill="#157c88" fill-opacity="0.35"/>
    <rect x="460" y="228" width="28" height="112" rx="4" fill="#157c88" fill-opacity="0.55"/>
    <rect x="500" y="244" width="28" height="96" rx="4" fill="#157c88" fill-opacity="0.45"/>
    <rect x="540" y="212" width="28" height="128" rx="4" fill="#157c88" fill-opacity="0.65"/>
  </g>
  <!-- playbook -->
  <rect x="620" y="188" width="140" height="124" rx="10" stroke="#2e3848" stroke-opacity="0.35" stroke-width="1.5" fill="#fff" fill-opacity="0.9"/>
  <path d="M640 224h100M640 248h72M640 272h88M640 296h56" stroke="#157c88" stroke-width="2" stroke-linecap="round" opacity="0.6"/>
  <circle cx="632" cy="224" r="4" fill="#157c88"/>
  <circle cx="632" cy="248" r="4" fill="#3da8b8"/>
  <circle cx="632" cy="272" r="4" fill="#157c88" fill-opacity="0.5"/>
  <circle cx="632" cy="296" r="4" fill="#3da8b8" fill-opacity="0.6"/>
</svg>
